<svg width="1266" height="299" viewBox="0 0 1266 299" fill="none" xmlns="http://www.w3.org/2000/svg">
<g clip-path="url(#clip0_725_22051)">
<rect y="-1" width="1" height="566" fill="#080F11"/>
<rect x="33.2896" y="-1" width="1" height="566" fill="#141B1D"/>
<rect x="66.5791" y="-1" width="1" height="566" fill="#141B1D"/>
<rect x="99.8687" y="-1" width="1" height="566" fill="#141B1D"/>
<rect x="133.158" y="-1" width="1" height="566" fill="#141B1D"/>
<rect x="166.447" y="-1" width="1" height="566" fill="#141B1D"/>
<rect x="199.737" y="-1" width="1" height="566" fill="#141B1D"/>
<rect x="233.026" y="-1" width="1" height="566" fill="#141B1D"/>
<rect x="266.316" y="-1" width="1" height="566" fill="#141B1D"/>
<rect x="299.605" y="-1" width="1" height="566" fill="#141B1D"/>
<rect x="332.895" y="-1" width="1" height="566" fill="#141B1D"/>
<rect x="366.184" y="-1" width="1" height="566" fill="#141B1D"/>
<rect x="399.474" y="-1" width="1" height="566" fill="#141B1D"/>
<rect x="432.763" y="-1" width="1" height="566" fill="#141B1D"/>
<rect x="466.053" y="-1" width="1" height="566" fill="#141B1D"/>
<rect x="499.342" y="-1" width="1" height="566" fill="#141B1D"/>
<rect x="532.632" y="-1" width="1" height="566" fill="#141B1D"/>
<rect x="565.921" y="-1" width="1" height="566" fill="#141B1D"/>
<rect x="599.211" y="-1" width="1" height="566" fill="#141B1D"/>
<rect x="632.5" y="-1" width="1" height="566" fill="#141B1D"/>
<rect x="665.79" y="-1" width="1" height="566" fill="#141B1D"/>
<rect x="699.079" y="-1" width="1" height="566" fill="#141B1D"/>
<rect x="732.369" y="-1" width="1" height="566" fill="#141B1D"/>
<rect x="765.658" y="-1" width="1" height="566" fill="#141B1D"/>
<rect x="798.948" y="-1" width="1" height="566" fill="#141B1D"/>
<rect x="832.237" y="-1" width="1" height="566" fill="#141B1D"/>
<rect x="865.526" y="-1" width="1" height="566" fill="#141B1D"/>
<rect x="898.816" y="-1" width="1" height="566" fill="#141B1D"/>
<rect x="932.105" y="-1" width="1" height="566" fill="#141B1D"/>
<rect x="965.395" y="-1" width="1" height="566" fill="#141B1D"/>
<rect x="998.685" y="-1" width="1" height="566" fill="#141B1D"/>
<rect x="1031.97" y="-1" width="1" height="566" fill="#141B1D"/>
<rect x="1065.26" y="-1" width="1" height="566" fill="#141B1D"/>
<rect x="1098.55" y="-1" width="1" height="566" fill="#141B1D"/>
<rect x="1131.84" y="-1" width="1" height="566" fill="#141B1D"/>
<rect x="1165.13" y="-1" width="1" height="566" fill="#141B1D"/>
<rect x="1198.42" y="-1" width="1" height="566" fill="#141B1D"/>
<rect x="1231.71" y="-1" width="1" height="566" fill="#141B1D"/>
<rect x="1265" y="-1" width="1" height="566" fill="#080F11"/>
<rect y="299.605" width="1" height="1266" transform="rotate(-90 0 299.605)" fill="#080F11"/>
<rect y="266.315" width="1" height="1266" transform="rotate(-90 0 266.315)" fill="#141B1D"/>
<rect y="233.026" width="1" height="1266" transform="rotate(-90 0 233.026)" fill="#141B1D"/>
<rect y="199.736" width="1" height="1266" transform="rotate(-90 0 199.736)" fill="#141B1D"/>
<rect y="166.447" width="1" height="1266" transform="rotate(-90 0 166.447)" fill="#141B1D"/>
<rect y="133.158" width="1" height="1266" transform="rotate(-90 0 133.158)" fill="#141B1D"/>
<rect y="99.8682" width="1" height="1266" transform="rotate(-90 0 99.8682)" fill="#141B1D"/>
<rect y="66.5791" width="1" height="1266" transform="rotate(-90 0 66.5791)" fill="#141B1D"/>
<rect y="33.2896" width="1" height="1266" transform="rotate(-90 0 33.2896)" fill="#141B1D"/>
</g>
<defs>
<clipPath id="clip0_725_22051">
<rect width="1266" height="299" fill="white"/>
</clipPath>
</defs>
</svg>
